<svg width="462" height="45" viewBox="0 0 462 45" fill="none" xmlns="http://www.w3.org/2000/svg">
<g clip-path="url(#clip0_773_1498)">
<path d="M15.3941 16.9268L12.5087 20.5739L0.597656 5.50586H6.36842L15.3941 16.9268Z" fill="#5CECD3"/>
<path d="M30.1437 35.5861H24.3759L15.3945 24.2243L18.2799 20.5742L30.1437 35.5861Z" fill="#5CECD3"/>
<path d="M30.1453 35.5888C30.4607 35.9941 30.6564 36.4798 30.7102 36.9908C30.764 37.5018 30.6737 38.0177 30.4497 38.48C30.2257 38.9423 29.8768 39.3324 29.4426 39.6063C29.0084 39.8801 28.5063 40.0267 27.9932 40.0293H2.79793C2.28435 40.0278 1.7815 39.8819 1.34663 39.6083C0.911752 39.3347 0.562311 38.9443 0.338066 38.4816C0.113821 38.0189 0.0237981 37.5025 0.0782119 36.9911C0.132626 36.4797 0.329276 35.9938 0.645842 35.5888L12.5118 20.577L15.403 16.9387L24.4311 5.52073H0.61037C0.289429 5.11589 0.0890569 4.62859 0.0322747 4.11482C-0.0245075 3.60106 0.0646177 3.08167 0.289386 2.61634C0.514155 2.15102 0.865458 1.75865 1.30293 1.4843C1.7404 1.20996 2.24628 1.06477 2.76246 1.06543H28.0464C28.5621 1.06592 29.0672 1.2118 29.504 1.48638C29.9408 1.76096 30.2915 2.15314 30.516 2.61803C30.7406 3.08291 30.8299 3.60172 30.7737 4.11507C30.7176 4.62841 30.5182 5.11555 30.1985 5.52073L18.2882 20.5888L15.403 24.2211L6.41329 35.5888H30.1453Z" fill="url(#paint0_linear_773_1498)"/>
<path d="M43.4844 18.4485V16.3467C43.4844 15.3875 43.514 14.5804 43.5731 13.9251C43.6104 13.3599 43.731 12.8032 43.9308 12.2733C44.1152 11.8234 44.4151 11.4302 44.7999 11.1335C45.3003 10.7618 45.8507 10.4628 46.4348 10.2455L50.6003 8.50774C51.0548 8.34021 51.4876 8.11856 51.8892 7.84758C52.156 7.6631 52.3561 7.3973 52.4598 7.08974C52.5715 6.71142 52.6224 6.3177 52.6106 5.92336C52.6495 5.38116 52.5337 4.83905 52.2765 4.36031C52.1333 4.17797 51.9546 4.02653 51.7514 3.91511C51.5482 3.8037 51.3246 3.73461 51.094 3.712C50.301 3.5988 49.5002 3.5493 48.6994 3.56398C48.3209 3.56398 47.8538 3.58174 47.2981 3.6143C46.7423 3.64686 46.1687 3.68831 45.5656 3.73864L43.8391 3.88665V1.66344C44.414 1.55146 44.9942 1.46847 45.5774 1.41477C46.2377 1.34965 46.9196 1.29143 47.6232 1.24012C48.3239 1.19275 48.9832 1.16611 49.5951 1.16611C50.3491 1.16368 51.1026 1.20916 51.8508 1.30228C52.4983 1.38224 53.125 1.58307 53.6985 1.89435C54.2481 2.20704 54.6894 2.67999 54.9638 3.25018C55.3018 4.01824 55.4586 4.85393 55.422 5.69246C55.4503 6.51308 55.3363 7.33239 55.085 8.11401C54.8912 8.68926 54.5447 9.2009 54.0828 9.59417C53.559 10.0103 52.9735 10.3419 52.3475 10.577L47.5848 12.5367C47.2463 12.6571 46.9349 12.8432 46.6684 13.0844C46.4612 13.3011 46.3304 13.5797 46.2959 13.8778C46.2402 14.3057 46.2155 14.737 46.2219 15.1685V16.0566H55.422V18.4663L43.4844 18.4485Z" fill="#1855A0"/>
<path d="M65.2969 18.4485V1.36446H72.936C73.8212 1.33445 74.7043 1.46895 75.5406 1.76115C76.1455 1.98631 76.6744 2.37837 77.066 2.89199C77.4345 3.4133 77.6801 4.01148 77.7844 4.64154C77.9142 5.38831 77.9766 6.14527 77.9707 6.90324C77.9742 7.63118 77.9159 8.3581 77.7963 9.07612C77.6955 9.70886 77.4541 10.3108 77.0897 10.8375C76.6973 11.3728 76.1596 11.7838 75.5406 12.0217C74.6829 12.3322 73.7736 12.4749 72.8621 12.442H68.0995V18.4515L65.2969 18.4485ZM68.0995 10.056H71.7949C72.4181 10.0688 73.0411 10.0192 73.6544 9.90798C74.0385 9.85043 74.3922 9.66599 74.6596 9.38399C74.8806 9.10429 75.0216 8.7697 75.0675 8.41598C75.1423 7.91534 75.176 7.40939 75.1681 6.90324C75.1737 6.39272 75.145 5.88239 75.0823 5.37571C75.0448 5.02136 74.9063 4.68531 74.6832 4.40768C74.4206 4.13646 74.0773 3.9578 73.7047 3.89851C73.0997 3.78371 72.4844 3.7331 71.8688 3.74753H68.0995V10.056Z" fill="#1855A0"/>
<path d="M81.0938 18.4492V5.78492H83.4973L83.5978 8.07029H83.7958C83.9586 7.49111 84.2635 6.96191 84.6827 6.53092C85.07 6.16256 85.5488 5.90494 86.0693 5.78492C86.6801 5.64519 87.3053 5.57861 87.9317 5.58658V8.16799C86.8064 8.16799 85.9421 8.33376 85.339 8.66532C84.7281 9.00615 84.2742 9.57226 84.0738 10.2432C83.8084 11.1581 83.6877 12.1091 83.716 13.0614V18.4492H81.0938Z" fill="#1855A0"/>
<path d="M90.4648 2.60805V0H93.2172V2.60805H90.4648ZM90.5151 18.4488V5.78449H93.1492V18.4488H90.5151Z" fill="#1855A0"/>
<path d="M101.472 18.6471C100.976 18.6471 100.443 18.6471 99.8729 18.5968C99.3023 18.5464 98.7436 18.5228 98.1996 18.4724C97.6556 18.4221 97.1649 18.3659 96.7362 18.3007V16.2137C97.0171 16.2315 97.3275 16.2551 97.6911 16.2877C98.0547 16.3203 98.4213 16.3469 98.8204 16.3617L99.9852 16.412C100.364 16.4298 100.736 16.4387 101.1 16.4387C101.678 16.4601 102.257 16.4094 102.823 16.2877C102.97 16.2609 103.109 16.2011 103.229 16.1129C103.349 16.0247 103.448 15.9104 103.518 15.7785C103.636 15.4833 103.691 15.1668 103.681 14.849C103.695 14.5302 103.657 14.2111 103.568 13.9046C103.536 13.8106 103.482 13.7255 103.411 13.6565C103.339 13.5875 103.252 13.5366 103.157 13.508C102.858 13.4206 102.551 13.3622 102.241 13.3333L99.1663 12.9603C98.5296 12.9285 97.9114 12.736 97.3689 12.4008C96.9644 12.1157 96.6742 11.6961 96.55 11.2167C96.3973 10.6122 96.3267 9.98983 96.3401 9.36645C96.3112 8.6735 96.4333 7.98257 96.6978 7.34159C96.9114 6.8689 97.2669 6.47466 97.7147 6.2137C98.2111 5.94669 98.7541 5.77784 99.3141 5.71637C100 5.62975 100.692 5.58822 101.384 5.59204C101.845 5.59204 102.33 5.60979 102.832 5.64236C103.335 5.67492 103.826 5.71932 104.31 5.77853C104.795 5.83774 105.197 5.89991 105.537 5.96503V8.03727C105.141 7.98694 104.709 7.9455 104.248 7.91294L102.874 7.82412C102.418 7.80044 101.984 7.7886 101.57 7.7886C101.065 7.78266 100.56 7.81134 100.059 7.87445C99.7265 7.89957 99.4129 8.0398 99.1722 8.27113C98.9489 8.5758 98.8438 8.95143 98.8766 9.32797C98.866 9.6159 98.8959 9.90389 98.9653 10.1835C98.9909 10.2743 99.0377 10.3577 99.102 10.4267C99.1663 10.4957 99.2461 10.5484 99.3348 10.5802C99.6226 10.6755 99.9201 10.738 100.222 10.7667L103.545 11.1634C104.071 11.2041 104.587 11.3342 105.07 11.5482C105.479 11.7642 105.79 12.1285 105.939 12.5666C106.165 13.285 106.265 14.0372 106.235 14.7898C106.265 15.4686 106.164 16.1469 105.939 16.788C105.758 17.2687 105.434 17.6821 105.011 17.9721C104.555 18.2596 104.043 18.4454 103.509 18.5168C102.835 18.6136 102.154 18.6572 101.472 18.6471Z" fill="#1855A0"/>
<path d="M109.406 18.4491V5.78477H111.836L111.913 7.47511H112.085C112.261 7.08519 112.519 6.73786 112.841 6.45676C113.196 6.15735 113.61 5.93732 114.056 5.81141C114.633 5.64909 115.231 5.57327 115.83 5.58642C116.888 5.58642 117.677 5.73937 118.195 6.04528C118.734 6.36403 119.133 6.87463 119.312 7.47511H119.51C119.688 7.07967 119.955 6.73104 120.291 6.45676C120.664 6.15676 121.094 5.93707 121.556 5.81141C122.141 5.65018 122.747 5.5744 123.353 5.58642C124.445 5.58642 125.263 5.76897 125.807 6.13408C126.37 6.52188 126.761 7.11283 126.898 7.78299C127.097 8.68363 127.189 9.6049 127.17 10.5272V18.4491H124.542V11.5692C124.542 10.7443 124.517 10.0871 124.468 9.59767C124.454 9.21573 124.353 8.84207 124.172 8.50531C124.09 8.38352 123.984 8.27993 123.861 8.20098C123.737 8.12204 123.599 8.06943 123.454 8.04645C123.04 7.97099 122.621 7.93727 122.2 7.9458C121.718 7.92633 121.237 8.00696 120.787 8.18263C120.456 8.32591 120.184 8.5802 120.019 8.90198C119.836 9.28801 119.727 9.70458 119.697 10.1305C119.647 10.6279 119.623 11.2199 119.623 11.9067V18.4491H116.995V11.5692C117.002 10.911 116.973 10.2528 116.909 9.59767C116.883 9.21428 116.773 8.84132 116.587 8.50531C116.506 8.38495 116.402 8.28224 116.28 8.20337C116.159 8.1245 116.023 8.07111 115.88 8.04645C115.463 7.97011 115.039 7.93639 114.615 7.9458C114.139 7.92583 113.665 8.01072 113.226 8.19448C112.893 8.34713 112.619 8.60372 112.445 8.92567C112.252 9.31372 112.139 9.73644 112.111 10.169C112.06 10.6723 112.035 11.2554 112.037 11.9186V18.4491H109.406Z" fill="#1855A0"/>
<path d="M50.5805 40.0832C49.5506 40.0984 48.5214 40.0191 47.5059 39.8464C46.7812 39.7306 46.0915 39.4545 45.4868 39.0382C44.9557 38.6418 44.5461 38.1045 44.3042 37.487C43.9985 36.6866 43.8103 35.846 43.7455 34.9914C43.6469 33.981 43.5977 32.7643 43.5977 31.3414C43.5977 29.9184 43.6469 28.7017 43.7455 27.6913C43.8103 26.8367 43.9985 25.9961 44.3042 25.1957C44.5461 24.5782 44.9557 24.0409 45.4868 23.6445C46.0915 23.2282 46.7812 22.9521 47.5059 22.8363C48.5214 22.6636 49.5506 22.5843 50.5805 22.5995C51.0624 22.5995 51.5531 22.6172 52.0587 22.6498C52.5642 22.6824 53.0461 22.7297 53.5073 22.786C53.9052 22.8342 54.3001 22.9053 54.6898 22.9991V25.2283C54.2759 25.1809 53.868 25.1335 53.4629 25.0921C53.0579 25.0506 52.6647 25.024 52.2804 25.0062C51.8961 24.9885 51.5709 24.9826 51.29 24.9826C50.536 24.9754 49.782 25.008 49.0314 25.0802C48.5348 25.1198 48.0537 25.2716 47.6242 25.5243C47.2565 25.7737 46.9787 26.1349 46.8319 26.5545C46.6302 27.152 46.5128 27.7747 46.483 28.4047C46.4259 29.1823 46.3973 30.1592 46.3973 31.3354C46.3973 32.5117 46.4259 33.4836 46.483 34.2513C46.5115 34.8853 46.6289 35.5122 46.8319 36.1134C46.9769 36.5348 47.255 36.8975 47.6242 37.1466C48.0584 37.4032 48.5462 37.5552 49.0491 37.5906C49.7996 37.6655 50.5536 37.6991 51.3078 37.6913C51.8517 37.6913 52.4509 37.6666 53.1052 37.6172C53.7586 37.5669 54.3232 37.5107 54.8022 37.4426V39.7339C54.4385 39.802 54.0128 39.8582 53.528 39.9086C53.0431 39.9589 52.5435 40.0003 52.0498 40.0329C51.5561 40.0654 51.0565 40.0832 50.5805 40.0832Z" fill="#1855A0"/>
<path d="M63.213 40.0832C62.3287 40.0968 61.445 40.0295 60.573 39.8819C59.9799 39.7938 59.413 39.5776 58.9115 39.2484C58.503 38.9527 58.1937 38.5398 58.0246 38.0643C57.8112 37.4649 57.6857 36.8377 57.6522 36.2022C57.593 35.4562 57.5664 34.5652 57.5664 33.5202C57.5664 32.4752 57.593 31.6078 57.6522 30.8559C57.6854 30.2204 57.8109 29.5931 58.0246 28.9938C58.195 28.519 58.504 28.1064 58.9115 27.8097C59.4127 27.4822 59.9801 27.2699 60.573 27.188C61.4464 27.0535 62.3294 26.9921 63.213 27.0045C64.1034 26.9921 64.9934 27.0535 65.8737 27.188C66.4664 27.2705 67.0337 27.4827 67.5352 27.8097C67.9419 28.1072 68.2507 28.5195 68.4221 28.9938C68.633 29.5939 68.7584 30.2208 68.7946 30.8559C68.8507 31.5989 68.8803 32.487 68.8803 33.5202C68.8803 34.5533 68.8507 35.4562 68.7946 36.2022C68.7581 36.8373 68.6327 37.4641 68.4221 38.0643C68.252 38.5393 67.9429 38.9519 67.5352 39.2484C67.0335 39.5772 66.4667 39.7933 65.8737 39.8819C64.9947 40.0295 64.1041 40.0968 63.213 40.0832ZM63.213 37.8719C63.8079 37.8878 64.4027 37.8382 64.9868 37.7239C65.1678 37.693 65.3403 37.6243 65.4931 37.5223C65.6459 37.4203 65.7756 37.2872 65.8737 37.1318C66.0771 36.723 66.1872 36.274 66.1959 35.8174C66.2373 35.2372 66.258 34.4754 66.258 33.532C66.258 32.5887 66.2373 31.8318 66.1959 31.2615C66.1858 30.8078 66.0758 30.362 65.8737 29.9559C65.7776 29.7987 65.6485 29.6643 65.4954 29.5621C65.3422 29.4598 65.1687 29.3922 64.9868 29.3639C64.4018 29.2577 63.8074 29.212 63.213 29.2277C62.6314 29.2132 62.0499 29.2588 61.4776 29.3639C61.2959 29.3926 61.1225 29.4604 60.9694 29.5626C60.8163 29.6648 60.6871 29.799 60.5907 29.9559C60.3886 30.362 60.2786 30.8078 60.2685 31.2615C60.2271 31.8318 60.2064 32.5887 60.2064 33.532C60.2064 34.4754 60.2271 35.2372 60.2685 35.8174C60.2772 36.274 60.3873 36.723 60.5907 37.1318C60.6893 37.2869 60.8191 37.4196 60.9718 37.5216C61.1245 37.6235 61.2968 37.6924 61.4776 37.7239C62.0489 37.8369 62.6309 37.8866 63.213 37.8719Z" fill="#1855A0"/>
<path d="M72.3125 39.8813V27.22H74.7426L74.8195 28.9074H75.0176C75.2021 28.5094 75.4727 28.1575 75.8098 27.8772C76.1909 27.5786 76.6299 27.3629 77.0988 27.2437C77.7304 27.0833 78.3807 27.0086 79.0322 27.0216C79.7634 26.9922 80.494 27.0924 81.1904 27.3177C81.6913 27.4911 82.1255 27.8172 82.432 28.2502C82.734 28.7165 82.9354 29.2408 83.0233 29.7895C83.1376 30.504 83.191 31.227 83.1829 31.9506V39.8813H80.5222V33.0045C80.5304 32.3451 80.5008 31.6859 80.4335 31.0299C80.4106 30.6409 80.2874 30.2646 80.0758 29.9375C79.8751 29.6871 79.5864 29.5229 79.2688 29.4787C78.7976 29.4038 78.3208 29.3701 77.8438 29.3781C77.3074 29.3578 76.7722 29.4423 76.2681 29.6267C75.9051 29.7729 75.6005 30.0352 75.4019 30.3727C75.1938 30.7561 75.067 31.1784 75.0294 31.6131C74.966 32.1901 74.9364 32.7703 74.9407 33.3508V39.8813H72.3125Z" fill="#1855A0"/>
<path d="M91.5034 40.0825C91.0097 40.0825 90.4746 40.0647 89.904 40.0322C89.3334 39.9996 88.7776 39.9582 88.2307 39.9078C87.6838 39.8575 87.199 39.8013 86.7673 39.7332V37.6609C87.0482 37.6609 87.3586 37.7024 87.7222 37.7349C88.0859 37.7675 88.4554 37.7912 88.8515 37.809L90.0164 37.8593C90.3977 37.8593 90.7672 37.883 91.1338 37.883C91.7112 37.9034 92.289 37.8537 92.8544 37.7349C93.0011 37.7081 93.1398 37.6484 93.2601 37.5602C93.3804 37.472 93.4793 37.3577 93.5492 37.2258C93.6684 36.9299 93.7239 36.6121 93.7118 36.2933C93.7259 35.9745 93.6879 35.6555 93.5994 35.3489C93.5671 35.2555 93.5133 35.171 93.4424 35.1021C93.3716 35.0332 93.2857 34.9819 93.1915 34.9522C92.8905 34.8679 92.5829 34.8094 92.272 34.7776L89.1974 34.4075C88.5608 34.3757 87.9425 34.1833 87.4 33.848C86.9975 33.561 86.7079 33.1421 86.5811 32.6639C86.4297 32.0582 86.3591 31.435 86.3712 30.8107C86.3428 30.1185 86.466 29.4284 86.7319 28.7888C86.9428 28.3136 87.2989 27.9177 87.7488 27.658C88.245 27.3906 88.7881 27.2217 89.3482 27.1607C90.0348 27.0764 90.726 27.0358 91.4177 27.0393C91.8788 27.0393 92.3637 27.0541 92.8663 27.0866C93.3688 27.1192 93.8596 27.1666 94.3444 27.2228C94.8293 27.2791 95.2313 27.3442 95.5713 27.4093V29.4963C95.1751 29.446 94.7435 29.4046 94.2794 29.372C93.8152 29.3394 93.36 29.3098 92.9047 29.2862C92.4494 29.2625 92.0178 29.2477 91.6039 29.2477C91.098 29.2418 90.5923 29.2704 90.0903 29.3335C89.7574 29.3602 89.444 29.5014 89.2034 29.7332C88.9799 30.0367 88.8748 30.4114 88.9077 30.7871C88.8965 31.0758 88.9254 31.3647 88.9934 31.6455C89.0193 31.7367 89.0667 31.8203 89.1315 31.8893C89.1963 31.9583 89.2767 32.0108 89.3659 32.0422C89.6533 32.1382 89.951 32.1998 90.2528 32.2258L93.5758 32.6254C94.1027 32.664 94.6189 32.7942 95.1012 33.0102C95.5115 33.2237 95.8223 33.5891 95.9675 34.0286C96.1936 34.747 96.2937 35.4992 96.2631 36.2518C96.2906 36.9296 96.1903 37.6065 95.9675 38.2471C95.7874 38.729 95.4619 39.1429 95.0362 39.4312C94.5811 39.72 94.0686 39.9059 93.5344 39.9759C92.8612 40.0646 92.1821 40.1002 91.5034 40.0825Z" fill="#1855A0"/>
<path d="M103.581 40.0833C102.855 40.1111 102.129 40.0109 101.438 39.7873C100.929 39.6159 100.487 39.2899 100.172 38.8548C99.8606 38.3936 99.6583 37.867 99.5812 37.3154C99.4732 36.6003 99.4228 35.8776 99.4304 35.1544V27.2207H102.062V34.1094C102.053 34.7687 102.081 35.4279 102.147 36.0839C102.17 36.4729 102.293 36.8493 102.505 37.1763C102.706 37.4268 102.994 37.5909 103.312 37.6351C103.783 37.7116 104.26 37.7453 104.737 37.7358C105.277 37.7562 105.816 37.6718 106.325 37.4871C106.697 37.3471 107.01 37.0839 107.211 36.7411C107.417 36.3575 107.54 35.9349 107.572 35.5008C107.619 35.0034 107.646 34.4232 107.646 33.7601V27.2474H110.307V39.882H107.877L107.779 38.1947H107.605C107.424 38.5884 107.157 38.9364 106.824 39.213C106.44 39.5172 105.995 39.7371 105.52 39.8584C104.887 40.0204 104.235 40.096 103.581 40.0833Z" fill="#1855A0"/>
<path d="M114.219 39.8814V21.4326H116.847V39.8814H114.219Z" fill="#1855A0"/>
<path d="M121.906 39.882V29.4291H119.375V27.2207H121.906V23.5439H124.534V27.2207H127.49V29.4291H124.534V39.882H121.906Z" fill="#1855A0"/>
<path d="M129.988 24.0436V21.4355H132.741V24.0436H129.988ZM130.039 39.8843V27.22H132.667V39.8814L130.039 39.8843Z" fill="#1855A0"/>
<path d="M136.582 39.8813V27.22H139.012L139.089 28.9074H139.284C139.47 28.5091 139.741 28.1572 140.079 27.8772C140.46 27.5786 140.899 27.3629 141.368 27.2437C142 27.0833 142.65 27.0086 143.302 27.0216C144.033 26.9922 144.764 27.0924 145.46 27.3177C145.96 27.4904 146.394 27.8167 146.699 28.2502C147.002 28.7159 147.203 29.2404 147.29 29.7895C147.404 30.504 147.458 31.227 147.449 31.9506V39.8813H144.789V33.0045C144.797 32.3451 144.767 31.6859 144.7 31.0299C144.677 30.6409 144.554 30.2646 144.342 29.9375C144.142 29.6871 143.853 29.5229 143.535 29.4787C143.064 29.4038 142.587 29.3701 142.11 29.3781C141.574 29.3578 141.039 29.4423 140.535 29.6267C140.172 29.7729 139.867 30.0352 139.668 30.3727C139.46 30.7561 139.334 31.1784 139.296 31.6131C139.233 32.1901 139.203 32.7703 139.207 33.3508V39.8813H136.582Z" fill="#1855A0"/>
<path d="M156.073 44.997C155.544 44.997 155.009 44.997 154.462 44.9615C153.915 44.926 153.403 44.9023 152.924 44.8609L151.709 44.7513V42.6643C152.055 42.6969 152.454 42.7235 152.892 42.7383C153.329 42.7531 153.779 42.7679 154.231 42.7738C154.683 42.7797 155.088 42.7886 155.47 42.7886C156.18 42.8028 156.89 42.7483 157.589 42.6258C158.027 42.5606 158.434 42.361 158.754 42.0545C159.039 41.721 159.212 41.3071 159.251 40.8703C159.334 40.2116 159.372 39.5479 159.363 38.8839V38.2623H159.212C159.006 38.6824 158.695 39.0415 158.308 39.3043C157.913 39.5626 157.471 39.7406 157.007 39.8283C156.467 39.9306 155.919 39.9801 155.369 39.9763C154.642 39.9962 153.917 39.8911 153.226 39.6655C152.672 39.4718 152.191 39.1121 151.848 38.6353C151.457 38.0446 151.199 37.3759 151.091 36.6755C150.919 35.6417 150.841 34.5944 150.858 33.5465C150.84 32.4857 150.919 31.4256 151.091 30.3789C151.2 29.6704 151.458 28.9931 151.848 28.3925C152.193 27.9066 152.678 27.5378 153.238 27.3357C153.933 27.1044 154.663 26.9962 155.396 27.016C155.903 27.0167 156.41 27.0622 156.909 27.1522C157.408 27.2366 157.884 27.422 158.308 27.6969C158.751 27.9942 159.1 28.4122 159.313 28.9017H159.464L159.561 27.2143H161.991V38.3126C162.001 39.3337 161.943 40.3543 161.817 41.3677C161.744 42.1133 161.479 42.8272 161.048 43.4399C160.595 44.0104 159.975 44.4245 159.275 44.624C158.232 44.9101 157.153 45.0358 156.073 44.997ZM156.445 37.6732C156.994 37.6959 157.542 37.6073 158.057 37.4127C158.428 37.2605 158.735 36.9844 158.926 36.6311C159.138 36.2357 159.265 35.8 159.298 35.3523C159.345 34.8461 159.372 34.2362 159.372 33.5258C159.372 32.8153 159.345 32.2499 159.298 31.7496C159.266 31.3008 159.148 30.8625 158.949 30.4588C158.756 30.0825 158.436 29.7875 158.045 29.627C157.534 29.4344 156.99 29.3458 156.445 29.3665C155.925 29.3541 155.406 29.3998 154.896 29.5027C154.54 29.5698 154.223 29.7698 154.009 30.0622C153.779 30.4376 153.643 30.8631 153.613 31.3025C153.538 32.0451 153.504 32.7913 153.513 33.5376C153.504 34.276 153.538 35.0143 153.613 35.7489C153.643 36.1884 153.779 36.6139 154.009 36.9893C154.223 37.2817 154.54 37.4817 154.896 37.5488C155.407 37.6437 155.926 37.6815 156.445 37.6613V37.6732Z" fill="#1855A0"/>
<path d="M154.759 4.92303H154.017V0.639433H152.539V0H156.232V0.639433H154.753L154.759 4.92303Z" fill="black"/>
<path d="M159.126 4.92303L157.647 0.73712H157.621C157.621 0.834811 157.621 0.95915 157.642 1.11309C157.662 1.26702 157.642 1.4328 157.662 1.61338C157.683 1.79396 157.662 1.96862 157.662 2.14328V4.92303H157V0H158.061L159.471 3.95204H159.501L160.953 0H162.014V4.92303H161.29V2.10184C161.29 1.9479 161.29 1.78212 161.29 1.61042C161.29 1.43872 161.29 1.27591 161.31 1.12197C161.331 0.968031 161.31 0.846658 161.328 0.743046H161.299L159.77 4.92303H159.126Z" fill="black"/>
</g>
<path d="M205.261 9.77904C204.482 9.77904 203.778 9.91569 203.149 10.189C202.521 10.4486 201.988 10.8381 201.55 11.3574C201.113 11.863 200.778 12.4847 200.546 13.2226C200.314 13.9469 200.198 14.7668 200.198 15.6824C200.198 16.8849 200.382 17.9303 200.751 18.8185C201.134 19.7067 201.694 20.39 202.432 20.8682C203.183 21.3465 204.12 21.5857 205.24 21.5857C205.882 21.5857 206.49 21.531 207.064 21.4217C207.638 21.3124 208.199 21.1757 208.745 21.0117V22.6105C208.199 22.8155 207.631 22.9658 207.044 23.0615C206.47 23.1571 205.78 23.205 204.974 23.205C203.484 23.205 202.241 22.8975 201.243 22.2826C200.245 21.6677 199.494 20.7931 198.988 19.6589C198.496 18.5247 198.25 17.1923 198.25 15.6619C198.25 14.555 198.401 13.5438 198.701 12.6282C199.016 11.7127 199.467 10.9201 200.054 10.2505C200.655 9.5809 201.393 9.06846 202.268 8.71317C203.142 8.34421 204.147 8.15973 205.281 8.15973C206.033 8.15973 206.757 8.23489 207.454 8.38521C208.151 8.53552 208.772 8.74733 209.319 9.02063L208.581 10.5785C208.13 10.3735 207.625 10.189 207.064 10.025C206.518 9.86103 205.916 9.77904 205.261 9.77904ZM213.497 23H211.693V7.42182H213.497V23ZM221.139 11.8288C222.478 11.8288 223.469 12.1226 224.111 12.7102C224.753 13.2978 225.075 14.2339 225.075 15.5184V23H223.763L223.414 21.4422H223.332C223.018 21.8385 222.69 22.1733 222.348 22.4466C222.02 22.7062 221.638 22.8975 221.2 23.0205C220.777 23.1435 220.258 23.205 219.643 23.205C218.987 23.205 218.392 23.0888 217.859 22.8565C217.34 22.6242 216.93 22.2689 216.63 21.7906C216.329 21.2987 216.179 20.6838 216.179 19.9459C216.179 18.8527 216.609 18.0122 217.47 17.4247C218.331 16.8234 219.656 16.4954 221.446 16.4408L223.312 16.3793V15.7233C223.312 14.8078 223.114 14.1724 222.717 13.8171C222.321 13.4618 221.761 13.2841 221.036 13.2841C220.463 13.2841 219.916 13.373 219.397 13.5506C218.877 13.7146 218.392 13.9059 217.941 14.1245L217.388 12.7717C217.866 12.5121 218.433 12.2934 219.089 12.1158C219.745 11.9245 220.428 11.8288 221.139 11.8288ZM221.672 17.6911C220.305 17.7458 219.356 17.9644 218.823 18.347C218.303 18.7297 218.044 19.2694 218.044 19.9664C218.044 20.5813 218.228 21.0322 218.597 21.3192C218.98 21.6062 219.465 21.7496 220.053 21.7496C220.982 21.7496 221.754 21.4968 222.369 20.9912C222.984 20.472 223.291 19.6794 223.291 18.6135V17.6296L221.672 17.6911ZM233.592 11.8083C233.797 11.8083 234.016 11.822 234.248 11.8493C234.494 11.863 234.706 11.8903 234.884 11.9313L234.658 13.5916C234.48 13.5506 234.282 13.5164 234.064 13.4891C233.859 13.4618 233.661 13.4481 233.469 13.4481C233.046 13.4481 232.643 13.5369 232.26 13.7146C231.877 13.8922 231.536 14.145 231.235 14.473C230.934 14.7873 230.695 15.1699 230.518 15.6209C230.354 16.0718 230.272 16.5774 230.272 17.1377V23H228.468V12.0133H229.944L230.149 14.022H230.231C230.463 13.6121 230.743 13.2431 231.071 12.9152C231.399 12.5736 231.775 12.3071 232.198 12.1158C232.622 11.9108 233.087 11.8083 233.592 11.8083ZM238.739 12.0133V23H236.935V12.0133H238.739ZM237.857 7.89326C238.131 7.89326 238.37 7.98892 238.575 8.18023C238.794 8.35788 238.903 8.64484 238.903 9.04113C238.903 9.42375 238.794 9.71072 238.575 9.90203C238.37 10.0933 238.131 10.189 237.857 10.189C237.557 10.189 237.304 10.0933 237.099 9.90203C236.894 9.71072 236.792 9.42375 236.792 9.04113C236.792 8.64484 236.894 8.35788 237.099 8.18023C237.304 7.98892 237.557 7.89326 237.857 7.89326ZM245.889 21.7291C246.162 21.7291 246.442 21.7087 246.729 21.6677C247.016 21.613 247.248 21.5583 247.426 21.5037V22.877C247.235 22.9727 246.961 23.0478 246.606 23.1025C246.251 23.1708 245.909 23.205 245.581 23.205C245.007 23.205 244.474 23.1093 243.982 22.918C243.504 22.713 243.115 22.3646 242.814 21.8726C242.513 21.3807 242.363 20.6906 242.363 19.8024V13.4071H240.805V12.5462L242.384 11.8288L243.101 9.49208H244.167V12.0133H247.344V13.4071H244.167V19.7614C244.167 20.431 244.324 20.9297 244.638 21.2577C244.966 21.572 245.383 21.7291 245.889 21.7291ZM247.904 12.0133H249.831L252.209 18.2651C252.345 18.634 252.468 18.9893 252.578 19.3309C252.701 19.6726 252.81 20.0073 252.906 20.3353C253.001 20.6496 253.076 20.9571 253.131 21.2577H253.213C253.295 20.9161 253.425 20.472 253.603 19.9254C253.78 19.3651 253.965 18.8048 254.156 18.2446L256.39 12.0133H258.337L253.603 24.5168C253.343 25.2001 253.035 25.7945 252.68 26.3001C252.339 26.8194 251.915 27.2157 251.409 27.489C250.917 27.7759 250.316 27.9194 249.606 27.9194C249.278 27.9194 248.991 27.8989 248.745 27.8579C248.499 27.8306 248.287 27.7964 248.109 27.7554V26.3206C248.259 26.3479 248.437 26.3753 248.642 26.4026C248.861 26.4299 249.086 26.4436 249.319 26.4436C249.742 26.4436 250.104 26.3616 250.405 26.1976C250.719 26.0473 250.986 25.8218 251.204 25.5212C251.423 25.2342 251.607 24.8926 251.758 24.4963L252.332 23.041L247.904 12.0133ZM258.988 21.8931C258.988 21.3875 259.111 21.0322 259.357 20.8273C259.603 20.6223 259.897 20.5198 260.238 20.5198C260.593 20.5198 260.894 20.6223 261.14 20.8273C261.4 21.0322 261.53 21.3875 261.53 21.8931C261.53 22.3851 261.4 22.7404 261.14 22.959C260.894 23.1776 260.593 23.287 260.238 23.287C259.897 23.287 259.603 23.1776 259.357 22.959C259.111 22.7404 258.988 22.3851 258.988 21.8931ZM274.942 23H273.097V9.98402H268.526V8.36471H279.492V9.98402H274.942V23ZM285.557 11.8083C285.762 11.8083 285.98 11.822 286.213 11.8493C286.459 11.863 286.671 11.8903 286.848 11.9313L286.623 13.5916C286.445 13.5506 286.247 13.5164 286.028 13.4891C285.823 13.4618 285.625 13.4481 285.434 13.4481C285.01 13.4481 284.607 13.5369 284.225 13.7146C283.842 13.8922 283.5 14.145 283.2 14.473C282.899 14.7873 282.66 15.1699 282.482 15.6209C282.318 16.0718 282.236 16.5774 282.236 17.1377V23H280.432V12.0133H281.908L282.113 14.022H282.195C282.428 13.6121 282.708 13.2431 283.036 12.9152C283.364 12.5736 283.739 12.3071 284.163 12.1158C284.587 11.9108 285.051 11.8083 285.557 11.8083ZM292.66 11.8288C294 11.8288 294.99 12.1226 295.633 12.7102C296.275 13.2978 296.596 14.2339 296.596 15.5184V23H295.284L294.936 21.4422H294.854C294.539 21.8385 294.211 22.1733 293.87 22.4466C293.542 22.7062 293.159 22.8975 292.722 23.0205C292.298 23.1435 291.779 23.205 291.164 23.205C290.508 23.205 289.914 23.0888 289.381 22.8565C288.862 22.6242 288.452 22.2689 288.151 21.7906C287.85 21.2987 287.7 20.6838 287.7 19.9459C287.7 18.8527 288.13 18.0122 288.991 17.4247C289.852 16.8234 291.178 16.4954 292.968 16.4408L294.833 16.3793V15.7233C294.833 14.8078 294.635 14.1724 294.239 13.8171C293.842 13.4618 293.282 13.2841 292.558 13.2841C291.984 13.2841 291.437 13.373 290.918 13.5506C290.399 13.7146 289.914 13.9059 289.463 14.1245L288.909 12.7717C289.388 12.5121 289.955 12.2934 290.611 12.1158C291.267 11.9245 291.95 11.8288 292.66 11.8288ZM293.193 17.6911C291.827 17.7458 290.877 17.9644 290.344 18.347C289.825 18.7297 289.565 19.2694 289.565 19.9664C289.565 20.5813 289.75 21.0322 290.119 21.3192C290.501 21.6062 290.986 21.7496 291.574 21.7496C292.503 21.7496 293.275 21.4968 293.89 20.9912C294.505 20.472 294.813 19.6794 294.813 18.6135V17.6296L293.193 17.6911ZM305.278 11.8083C306.589 11.8083 307.58 12.1294 308.25 12.7717C308.919 13.4003 309.254 14.4252 309.254 15.8463V23H307.471V15.9693C307.471 15.0811 307.273 14.4183 306.876 13.9811C306.48 13.5438 305.858 13.3251 305.011 13.3251C303.795 13.3251 302.955 13.6668 302.49 14.35C302.025 15.0333 301.793 16.0171 301.793 17.3017V23H299.989V12.0133H301.445L301.711 13.5096H301.814C302.06 13.127 302.36 12.8127 302.715 12.5667C303.084 12.3071 303.488 12.1158 303.925 11.9928C304.362 11.8698 304.813 11.8083 305.278 11.8083ZM319.814 19.9664C319.814 20.6769 319.636 21.2714 319.281 21.7496C318.926 22.2279 318.42 22.59 317.764 22.836C317.108 23.082 316.329 23.205 315.427 23.205C314.662 23.205 313.999 23.1435 313.439 23.0205C312.892 22.8975 312.407 22.7267 311.984 22.5081V20.8682C312.421 21.0869 312.947 21.2919 313.562 21.4832C314.191 21.6608 314.826 21.7496 315.468 21.7496C316.384 21.7496 317.047 21.6062 317.457 21.3192C317.867 21.0186 318.072 20.6223 318.072 20.1303C318.072 19.857 317.996 19.6111 317.846 19.3924C317.696 19.1738 317.422 18.9551 317.026 18.7365C316.644 18.5179 316.09 18.2719 315.366 17.9986C314.655 17.7253 314.047 17.452 313.542 17.1787C313.036 16.9054 312.646 16.5774 312.373 16.1948C312.1 15.8122 311.963 15.3202 311.963 14.719C311.963 13.7897 312.339 13.0723 313.091 12.5667C313.856 12.0611 314.853 11.8083 316.083 11.8083C316.753 11.8083 317.375 11.8766 317.949 12.0133C318.536 12.1363 319.083 12.3139 319.588 12.5462L318.973 13.9811C318.673 13.8444 318.352 13.7282 318.01 13.6326C317.682 13.5233 317.347 13.4413 317.006 13.3866C316.664 13.3183 316.316 13.2841 315.96 13.2841C315.222 13.2841 314.655 13.4071 314.259 13.6531C313.876 13.8854 313.685 14.2065 313.685 14.6165C313.685 14.9171 313.774 15.1767 313.951 15.3954C314.129 15.6004 314.423 15.8053 314.833 16.0103C315.257 16.2016 315.817 16.4339 316.514 16.7072C317.211 16.9669 317.805 17.2333 318.297 17.5066C318.789 17.7799 319.165 18.1147 319.424 18.511C319.684 18.8936 319.814 19.3788 319.814 19.9664ZM327.695 11.8083C329.048 11.8083 330.135 12.2798 330.955 13.2226C331.788 14.1655 332.205 15.5867 332.205 17.4861C332.205 18.7297 332.014 19.7819 331.631 20.6428C331.262 21.49 330.736 22.1323 330.053 22.5696C329.383 22.9932 328.591 23.205 327.675 23.205C327.115 23.205 326.616 23.1298 326.179 22.9795C325.741 22.8292 325.366 22.6379 325.051 22.4056C324.751 22.1596 324.491 21.8931 324.272 21.6062H324.149C324.177 21.8385 324.204 22.1323 324.231 22.4876C324.259 22.8429 324.272 23.1503 324.272 23.41V27.9194H322.469V12.0133H323.944L324.19 13.5096H324.272C324.491 13.1953 324.751 12.9083 325.051 12.6487C325.366 12.3891 325.735 12.1841 326.158 12.0338C326.595 11.8835 327.108 11.8083 327.695 11.8083ZM327.367 13.3251C326.63 13.3251 326.035 13.4686 325.584 13.7556C325.133 14.0289 324.805 14.4457 324.6 15.0059C324.395 15.5662 324.286 16.2768 324.272 17.1377V17.4861C324.272 18.388 324.368 19.1533 324.559 19.7819C324.751 20.4105 325.072 20.8887 325.523 21.2167C325.987 21.5447 326.616 21.7087 327.408 21.7087C328.078 21.7087 328.625 21.5242 329.048 21.1552C329.486 20.7863 329.807 20.2875 330.012 19.6589C330.23 19.0166 330.34 18.2856 330.34 17.4656C330.34 16.2085 330.094 15.2041 329.602 14.4525C329.123 13.7009 328.379 13.3251 327.367 13.3251ZM339.24 11.8288C340.58 11.8288 341.57 12.1226 342.213 12.7102C342.855 13.2978 343.176 14.2339 343.176 15.5184V23H341.864L341.516 21.4422H341.434C341.119 21.8385 340.791 22.1733 340.45 22.4466C340.122 22.7062 339.739 22.8975 339.302 23.0205C338.878 23.1435 338.359 23.205 337.744 23.205C337.088 23.205 336.494 23.0888 335.961 22.8565C335.442 22.6242 335.032 22.2689 334.731 21.7906C334.43 21.2987 334.28 20.6838 334.28 19.9459C334.28 18.8527 334.71 18.0122 335.571 17.4247C336.432 16.8234 337.758 16.4954 339.548 16.4408L341.413 16.3793V15.7233C341.413 14.8078 341.215 14.1724 340.819 13.8171C340.422 13.4618 339.862 13.2841 339.138 13.2841C338.564 13.2841 338.017 13.373 337.498 13.5506C336.979 13.7146 336.494 13.9059 336.043 14.1245L335.489 12.7717C335.968 12.5121 336.535 12.2934 337.191 12.1158C337.847 11.9245 338.53 11.8288 339.24 11.8288ZM339.773 17.6911C338.407 17.7458 337.457 17.9644 336.924 18.347C336.405 18.7297 336.145 19.2694 336.145 19.9664C336.145 20.5813 336.33 21.0322 336.699 21.3192C337.081 21.6062 337.566 21.7496 338.154 21.7496C339.083 21.7496 339.855 21.4968 340.47 20.9912C341.085 20.472 341.393 19.6794 341.393 18.6135V17.6296L339.773 17.6911ZM351.694 11.8083C351.899 11.8083 352.117 11.822 352.35 11.8493C352.596 11.863 352.807 11.8903 352.985 11.9313L352.76 13.5916C352.582 13.5506 352.384 13.5164 352.165 13.4891C351.96 13.4618 351.762 13.4481 351.571 13.4481C351.147 13.4481 350.744 13.5369 350.361 13.7146C349.979 13.8922 349.637 14.145 349.336 14.473C349.036 14.7873 348.797 15.1699 348.619 15.6209C348.455 16.0718 348.373 16.5774 348.373 17.1377V23H346.569V12.0133H348.045L348.25 14.022H348.332C348.564 13.6121 348.845 13.2431 349.172 12.9152C349.5 12.5736 349.876 12.3071 350.3 12.1158C350.723 11.9108 351.188 11.8083 351.694 11.8083ZM358.879 11.8083C359.822 11.8083 360.628 12.0133 361.298 12.4232C361.981 12.8332 362.5 13.414 362.856 14.1655C363.225 14.9034 363.409 15.7712 363.409 16.7687V17.8551H355.887C355.914 19.0986 356.228 20.0483 356.829 20.7043C357.444 21.3465 358.298 21.6677 359.392 21.6677C360.089 21.6677 360.703 21.6062 361.236 21.4832C361.783 21.3465 362.343 21.1552 362.917 20.9092V22.4876C362.357 22.7335 361.804 22.9112 361.257 23.0205C360.71 23.1435 360.061 23.205 359.31 23.205C358.271 23.205 357.349 22.9932 356.542 22.5696C355.75 22.1459 355.128 21.5173 354.677 20.6838C354.24 19.8365 354.021 18.8048 354.021 17.5886C354.021 16.3861 354.219 15.3544 354.616 14.4935C355.026 13.6326 355.593 12.9698 356.317 12.5052C357.055 12.0406 357.909 11.8083 358.879 11.8083ZM358.859 13.2841C357.998 13.2841 357.315 13.5643 356.809 14.1245C356.317 14.6711 356.023 15.4364 355.928 16.4203H361.523C361.523 15.7917 361.428 15.2451 361.236 14.7805C361.045 14.3158 360.751 13.9537 360.355 13.6941C359.972 13.4208 359.474 13.2841 358.859 13.2841ZM371.495 11.8083C372.806 11.8083 373.797 12.1294 374.467 12.7717C375.136 13.4003 375.471 14.4252 375.471 15.8463V23H373.688V15.9693C373.688 15.0811 373.49 14.4183 373.093 13.9811C372.697 13.5438 372.075 13.3251 371.228 13.3251C370.012 13.3251 369.171 13.6668 368.707 14.35C368.242 15.0333 368.01 16.0171 368.01 17.3017V23H366.206V12.0133H367.661L367.928 13.5096H368.03C368.276 13.127 368.577 12.8127 368.932 12.5667C369.301 12.3071 369.704 12.1158 370.142 11.9928C370.579 11.8698 371.03 11.8083 371.495 11.8083ZM383.284 23.205C382.314 23.205 381.446 23.0068 380.681 22.6105C379.929 22.2143 379.335 21.5993 378.898 20.7658C378.474 19.9322 378.262 18.8663 378.262 17.5681C378.262 16.2153 378.488 15.1153 378.939 14.268C379.389 13.4208 379.998 12.799 380.763 12.4027C381.542 12.0065 382.423 11.8083 383.407 11.8083C383.967 11.8083 384.507 11.8698 385.026 11.9928C385.546 12.1021 385.969 12.2388 386.297 12.4027L385.744 13.8991C385.416 13.7761 385.033 13.6599 384.596 13.5506C384.159 13.4413 383.749 13.3866 383.366 13.3866C382.628 13.3866 382.02 13.5438 381.542 13.8581C381.063 14.1724 380.708 14.637 380.476 15.2519C380.244 15.8668 380.127 16.6321 380.127 17.5476C380.127 18.4222 380.244 19.1669 380.476 19.7819C380.708 20.3968 381.057 20.8614 381.521 21.1757C381.986 21.49 382.567 21.6472 383.264 21.6472C383.865 21.6472 384.391 21.5857 384.842 21.4627C385.306 21.3397 385.73 21.1894 386.113 21.0117V22.6105C385.744 22.8019 385.334 22.9453 384.883 23.041C384.446 23.1503 383.913 23.205 383.284 23.205ZM387.004 12.0133H388.93L391.308 18.2651C391.445 18.634 391.568 18.9893 391.677 19.3309C391.8 19.6726 391.909 20.0073 392.005 20.3353C392.101 20.6496 392.176 20.9571 392.231 21.2577H392.313C392.395 20.9161 392.524 20.472 392.702 19.9254C392.88 19.3651 393.064 18.8048 393.255 18.2446L395.49 12.0133H397.437L392.702 24.5168C392.442 25.2001 392.135 25.7945 391.78 26.3001C391.438 26.8194 391.014 27.2157 390.509 27.489C390.017 27.7759 389.416 27.9194 388.705 27.9194C388.377 27.9194 388.09 27.8989 387.844 27.8579C387.598 27.8306 387.386 27.7964 387.209 27.7554V26.3206C387.359 26.3479 387.537 26.3753 387.742 26.4026C387.96 26.4299 388.186 26.4436 388.418 26.4436C388.842 26.4436 389.204 26.3616 389.504 26.1976C389.819 26.0473 390.085 25.8218 390.304 25.5212C390.522 25.2342 390.707 24.8926 390.857 24.4963L391.431 23.041L387.004 12.0133ZM398.087 21.8931C398.087 21.3875 398.21 21.0322 398.456 20.8273C398.702 20.6223 398.996 20.5198 399.338 20.5198C399.693 20.5198 399.994 20.6223 400.24 20.8273C400.499 21.0322 400.629 21.3875 400.629 21.8931C400.629 22.3851 400.499 22.7404 400.24 22.959C399.994 23.1776 399.693 23.287 399.338 23.287C398.996 23.287 398.702 23.1776 398.456 22.959C398.21 22.7404 398.087 22.3851 398.087 21.8931Z" fill="#2287DE"/>
<path d="M200.553 41H199.563V34.015H197.11V33.146H202.995V34.015H200.553V41ZM205.551 34.994C206.057 34.994 206.49 35.104 206.849 35.324C207.216 35.544 207.494 35.8557 207.685 36.259C207.883 36.655 207.982 37.1207 207.982 37.656V38.239H203.945C203.96 38.9063 204.128 39.416 204.451 39.768C204.781 40.1127 205.239 40.285 205.826 40.285C206.2 40.285 206.53 40.252 206.816 40.186C207.109 40.1127 207.41 40.01 207.718 39.878V40.725C207.417 40.857 207.12 40.9523 206.827 41.011C206.534 41.077 206.185 41.11 205.782 41.11C205.225 41.11 204.73 40.9963 204.297 40.769C203.872 40.5417 203.538 40.2043 203.296 39.757C203.061 39.3023 202.944 38.7487 202.944 38.096C202.944 37.4507 203.05 36.897 203.263 36.435C203.483 35.973 203.787 35.6173 204.176 35.368C204.572 35.1187 205.03 34.994 205.551 34.994ZM205.54 35.786C205.078 35.786 204.711 35.9363 204.44 36.237C204.176 36.5303 204.018 36.941 203.967 37.469H206.97C206.97 37.1317 206.919 36.8383 206.816 36.589C206.713 36.3397 206.556 36.1453 206.343 36.006C206.138 35.8593 205.87 35.786 205.54 35.786ZM211.848 41.11C211.327 41.11 210.862 41.0037 210.451 40.791C210.048 40.5783 209.729 40.2483 209.494 39.801C209.267 39.3537 209.153 38.7817 209.153 38.085C209.153 37.359 209.274 36.7687 209.516 36.314C209.758 35.8593 210.084 35.5257 210.495 35.313C210.913 35.1003 211.386 34.994 211.914 34.994C212.215 34.994 212.504 35.027 212.783 35.093C213.062 35.1517 213.289 35.225 213.465 35.313L213.168 36.116C212.992 36.05 212.787 35.9877 212.552 35.929C212.317 35.8703 212.097 35.841 211.892 35.841C211.496 35.841 211.17 35.9253 210.913 36.094C210.656 36.2627 210.466 36.512 210.341 36.842C210.216 37.172 210.154 37.5827 210.154 38.074C210.154 38.5433 210.216 38.943 210.341 39.273C210.466 39.603 210.653 39.8523 210.902 40.021C211.151 40.1897 211.463 40.274 211.837 40.274C212.16 40.274 212.442 40.241 212.684 40.175C212.933 40.109 213.161 40.0283 213.366 39.933V40.791C213.168 40.8937 212.948 40.9707 212.706 41.022C212.471 41.0807 212.185 41.11 211.848 41.11ZM215.736 35.093C215.736 35.2323 215.729 35.3753 215.714 35.522C215.707 35.6687 215.696 35.8007 215.681 35.918H215.747C215.872 35.7127 216.029 35.544 216.22 35.412C216.411 35.28 216.623 35.181 216.858 35.115C217.093 35.0417 217.335 35.005 217.584 35.005C218.061 35.005 218.457 35.082 218.772 35.236C219.095 35.3827 219.337 35.6137 219.498 35.929C219.659 36.2443 219.74 36.655 219.74 37.161V41H218.783V37.227C218.783 36.7503 218.677 36.3947 218.464 36.16C218.251 35.9253 217.918 35.808 217.463 35.808C217.023 35.808 216.678 35.8923 216.429 36.061C216.18 36.2223 216 36.4643 215.89 36.787C215.787 37.1023 215.736 37.491 215.736 37.953V41H214.768V32.64H215.736V35.093ZM224.406 34.994C225.11 34.994 225.641 35.1663 226.001 35.511C226.36 35.8483 226.54 36.3983 226.54 37.161V41H225.583V37.227C225.583 36.7503 225.476 36.3947 225.264 36.16C225.051 35.9253 224.717 35.808 224.263 35.808C223.61 35.808 223.159 35.9913 222.91 36.358C222.66 36.7247 222.536 37.2527 222.536 37.942V41H221.568V35.104H222.349L222.492 35.907H222.547C222.679 35.7017 222.84 35.533 223.031 35.401C223.229 35.2617 223.445 35.159 223.68 35.093C223.914 35.027 224.156 34.994 224.406 34.994ZM233.494 38.041C233.494 38.5323 233.428 38.9687 233.296 39.35C233.171 39.724 232.988 40.043 232.746 40.307C232.511 40.571 232.221 40.7727 231.877 40.912C231.539 41.044 231.162 41.11 230.744 41.11C230.355 41.11 229.996 41.044 229.666 40.912C229.336 40.7727 229.05 40.571 228.808 40.307C228.566 40.043 228.375 39.724 228.236 39.35C228.104 38.9687 228.038 38.5323 228.038 38.041C228.038 37.3883 228.148 36.8383 228.368 36.391C228.588 35.9363 228.903 35.5917 229.314 35.357C229.724 35.115 230.212 34.994 230.777 34.994C231.312 34.994 231.781 35.115 232.185 35.357C232.595 35.5917 232.914 35.9363 233.142 36.391C233.376 36.8383 233.494 37.3883 233.494 38.041ZM229.039 38.041C229.039 38.503 229.097 38.9063 229.215 39.251C229.339 39.5883 229.53 39.8487 229.787 40.032C230.043 40.2153 230.37 40.307 230.766 40.307C231.162 40.307 231.488 40.2153 231.745 40.032C232.001 39.8487 232.188 39.5883 232.306 39.251C232.43 38.9063 232.493 38.503 232.493 38.041C232.493 37.5717 232.43 37.172 232.306 36.842C232.181 36.512 231.99 36.259 231.734 36.083C231.484 35.8997 231.158 35.808 230.755 35.808C230.153 35.808 229.717 36.006 229.446 36.402C229.174 36.798 229.039 37.3443 229.039 38.041ZM235.996 41H235.028V32.64H235.996V41ZM242.99 38.041C242.99 38.5323 242.924 38.9687 242.792 39.35C242.667 39.724 242.484 40.043 242.242 40.307C242.007 40.571 241.717 40.7727 241.373 40.912C241.035 41.044 240.658 41.11 240.24 41.11C239.851 41.11 239.492 41.044 239.162 40.912C238.832 40.7727 238.546 40.571 238.304 40.307C238.062 40.043 237.871 39.724 237.732 39.35C237.6 38.9687 237.534 38.5323 237.534 38.041C237.534 37.3883 237.644 36.8383 237.864 36.391C238.084 35.9363 238.399 35.5917 238.81 35.357C239.22 35.115 239.708 34.994 240.273 34.994C240.808 34.994 241.277 35.115 241.681 35.357C242.091 35.5917 242.41 35.9363 242.638 36.391C242.872 36.8383 242.99 37.3883 242.99 38.041ZM238.535 38.041C238.535 38.503 238.593 38.9063 238.711 39.251C238.835 39.5883 239.026 39.8487 239.283 40.032C239.539 40.2153 239.866 40.307 240.262 40.307C240.658 40.307 240.984 40.2153 241.241 40.032C241.497 39.8487 241.684 39.5883 241.802 39.251C241.926 38.9063 241.989 38.503 241.989 38.041C241.989 37.5717 241.926 37.172 241.802 36.842C241.677 36.512 241.486 36.259 241.23 36.083C240.98 35.8997 240.654 35.808 240.251 35.808C239.649 35.808 239.213 36.006 238.942 36.402C238.67 36.798 238.535 37.3443 238.535 38.041ZM246.614 34.994C247.003 34.994 247.351 35.0673 247.659 35.214C247.974 35.3607 248.242 35.5843 248.462 35.885H248.517L248.649 35.104H249.419V41.099C249.419 41.6563 249.324 42.122 249.133 42.496C248.942 42.8773 248.653 43.1633 248.264 43.354C247.875 43.5447 247.38 43.64 246.779 43.64C246.354 43.64 245.961 43.607 245.602 43.541C245.25 43.4823 244.935 43.3907 244.656 43.266V42.375C244.847 42.4703 245.056 42.551 245.283 42.617C245.51 42.6903 245.756 42.7453 246.02 42.782C246.284 42.8187 246.555 42.837 246.834 42.837C247.34 42.837 247.736 42.6867 248.022 42.386C248.315 42.0927 248.462 41.6893 248.462 41.176V40.945C248.462 40.857 248.466 40.7323 248.473 40.571C248.48 40.4023 248.488 40.285 248.495 40.219H248.451C248.246 40.5197 247.989 40.7433 247.681 40.89C247.38 41.0367 247.028 41.11 246.625 41.11C245.862 41.11 245.265 40.8423 244.832 40.307C244.407 39.7717 244.194 39.0237 244.194 38.063C244.194 37.4323 244.289 36.8897 244.48 36.435C244.678 35.973 244.957 35.6173 245.316 35.368C245.675 35.1187 246.108 34.994 246.614 34.994ZM246.746 35.808C246.416 35.808 246.134 35.896 245.899 36.072C245.672 36.248 245.496 36.5047 245.371 36.842C245.254 37.1793 245.195 37.59 245.195 38.074C245.195 38.8 245.327 39.3573 245.591 39.746C245.862 40.1273 246.255 40.318 246.768 40.318C247.069 40.318 247.325 40.2813 247.538 40.208C247.751 40.1273 247.927 40.0063 248.066 39.845C248.205 39.6763 248.308 39.4637 248.374 39.207C248.44 38.9503 248.473 38.646 248.473 38.294V38.063C248.473 37.5277 248.411 37.095 248.286 36.765C248.169 36.435 247.982 36.193 247.725 36.039C247.468 35.885 247.142 35.808 246.746 35.808ZM250.367 35.104H251.401L252.677 38.459C252.751 38.657 252.817 38.8477 252.875 39.031C252.941 39.2143 253 39.394 253.051 39.57C253.103 39.7387 253.143 39.9037 253.172 40.065H253.216C253.26 39.8817 253.33 39.6433 253.425 39.35C253.521 39.0493 253.62 38.7487 253.722 38.448L254.921 35.104H255.966L253.425 41.814C253.286 42.1807 253.121 42.4997 252.93 42.771C252.747 43.0497 252.52 43.2623 252.248 43.409C251.984 43.563 251.662 43.64 251.28 43.64C251.104 43.64 250.95 43.629 250.818 43.607C250.686 43.5923 250.573 43.574 250.477 43.552V42.782C250.558 42.7967 250.653 42.8113 250.763 42.826C250.881 42.8407 251.002 42.848 251.126 42.848C251.354 42.848 251.548 42.804 251.709 42.716C251.878 42.6353 252.021 42.5143 252.138 42.353C252.256 42.199 252.355 42.0157 252.435 41.803L252.743 41.022L250.367 35.104ZM261.45 32.64H262.253V43.651H261.45V32.64ZM271.048 33.146C271.701 33.146 272.247 33.2083 272.687 33.333C273.135 33.4577 273.468 33.663 273.688 33.949C273.916 34.235 274.029 34.6163 274.029 35.093C274.029 35.401 273.971 35.676 273.853 35.918C273.743 36.1527 273.575 36.3507 273.347 36.512C273.127 36.666 272.856 36.7723 272.533 36.831V36.886C272.863 36.9373 273.16 37.0327 273.424 37.172C273.696 37.3113 273.908 37.5093 274.062 37.766C274.216 38.0227 274.293 38.3563 274.293 38.767C274.293 39.2437 274.183 39.6507 273.963 39.988C273.743 40.318 273.428 40.571 273.017 40.747C272.614 40.9157 272.13 41 271.565 41H268.804V33.146H271.048ZM271.246 36.49C271.921 36.49 272.383 36.3837 272.632 36.171C272.882 35.951 273.006 35.6283 273.006 35.203C273.006 34.7703 272.852 34.4623 272.544 34.279C272.244 34.0883 271.76 33.993 271.092 33.993H269.794V36.49H271.246ZM269.794 37.315V40.164H271.378C272.075 40.164 272.559 40.0283 272.83 39.757C273.102 39.4857 273.237 39.13 273.237 38.69C273.237 38.4113 273.175 38.1693 273.05 37.964C272.933 37.7587 272.731 37.601 272.445 37.491C272.167 37.3737 271.785 37.315 271.301 37.315H269.794ZM280.755 35.104V41H279.963L279.82 40.219H279.776C279.651 40.4243 279.49 40.593 279.292 40.725C279.094 40.857 278.877 40.9523 278.643 41.011C278.408 41.077 278.162 41.11 277.906 41.11C277.436 41.11 277.04 41.0367 276.718 40.89C276.402 40.736 276.164 40.5013 276.003 40.186C275.841 39.8707 275.761 39.4637 275.761 38.965V35.104H276.74V38.899C276.74 39.3683 276.846 39.7203 277.059 39.955C277.271 40.1897 277.601 40.307 278.049 40.307C278.489 40.307 278.833 40.2263 279.083 40.065C279.339 39.8963 279.519 39.6543 279.622 39.339C279.732 39.0163 279.787 38.6277 279.787 38.173V35.104H280.755ZM286.465 39.372C286.465 39.7533 286.37 40.0723 286.179 40.329C285.989 40.5857 285.717 40.78 285.365 40.912C285.013 41.044 284.595 41.11 284.111 41.11C283.701 41.11 283.345 41.077 283.044 41.011C282.751 40.945 282.491 40.8533 282.263 40.736V39.856C282.498 39.9733 282.78 40.0833 283.11 40.186C283.448 40.2813 283.789 40.329 284.133 40.329C284.625 40.329 284.98 40.252 285.2 40.098C285.42 39.9367 285.53 39.724 285.53 39.46C285.53 39.3133 285.49 39.1813 285.409 39.064C285.329 38.9467 285.182 38.8293 284.969 38.712C284.764 38.5947 284.467 38.4627 284.078 38.316C283.697 38.1693 283.371 38.0227 283.099 37.876C282.828 37.7293 282.619 37.5533 282.472 37.348C282.326 37.1427 282.252 36.8787 282.252 36.556C282.252 36.0573 282.454 35.6723 282.857 35.401C283.268 35.1297 283.803 34.994 284.463 34.994C284.823 34.994 285.156 35.0307 285.464 35.104C285.78 35.17 286.073 35.2653 286.344 35.39L286.014 36.16C285.853 36.0867 285.681 36.0243 285.497 35.973C285.321 35.9143 285.142 35.8703 284.958 35.841C284.775 35.8043 284.588 35.786 284.397 35.786C284.001 35.786 283.697 35.852 283.484 35.984C283.279 36.1087 283.176 36.281 283.176 36.501C283.176 36.6623 283.224 36.8017 283.319 36.919C283.415 37.029 283.572 37.139 283.792 37.249C284.02 37.3517 284.32 37.4763 284.694 37.623C285.068 37.7623 285.387 37.9053 285.651 38.052C285.915 38.1987 286.117 38.3783 286.256 38.591C286.396 38.7963 286.465 39.0567 286.465 39.372ZM288.858 35.104V41H287.89V35.104H288.858ZM288.385 32.893C288.532 32.893 288.66 32.9443 288.77 33.047C288.887 33.1423 288.946 33.2963 288.946 33.509C288.946 33.7143 288.887 33.8683 288.77 33.971C288.66 34.0737 288.532 34.125 288.385 34.125C288.224 34.125 288.088 34.0737 287.978 33.971C287.868 33.8683 287.813 33.7143 287.813 33.509C287.813 33.2963 287.868 33.1423 287.978 33.047C288.088 32.9443 288.224 32.893 288.385 32.893ZM293.564 34.994C294.268 34.994 294.8 35.1663 295.159 35.511C295.518 35.8483 295.698 36.3983 295.698 37.161V41H294.741V37.227C294.741 36.7503 294.635 36.3947 294.422 36.16C294.209 35.9253 293.876 35.808 293.421 35.808C292.768 35.808 292.317 35.9913 292.068 36.358C291.819 36.7247 291.694 37.2527 291.694 37.942V41H290.726V35.104H291.507L291.65 35.907H291.705C291.837 35.7017 291.998 35.533 292.189 35.401C292.387 35.2617 292.603 35.159 292.838 35.093C293.073 35.027 293.315 34.994 293.564 34.994ZM299.803 34.994C300.309 34.994 300.741 35.104 301.101 35.324C301.467 35.544 301.746 35.8557 301.937 36.259C302.135 36.655 302.234 37.1207 302.234 37.656V38.239H298.197C298.211 38.9063 298.38 39.416 298.703 39.768C299.033 40.1127 299.491 40.285 300.078 40.285C300.452 40.285 300.782 40.252 301.068 40.186C301.361 40.1127 301.662 40.01 301.97 39.878V40.725C301.669 40.857 301.372 40.9523 301.079 41.011C300.785 41.077 300.437 41.11 300.034 41.11C299.476 41.11 298.981 40.9963 298.549 40.769C298.123 40.5417 297.79 40.2043 297.548 39.757C297.313 39.3023 297.196 38.7487 297.196 38.096C297.196 37.4507 297.302 36.897 297.515 36.435C297.735 35.973 298.039 35.6173 298.428 35.368C298.824 35.1187 299.282 34.994 299.803 34.994ZM299.792 35.786C299.33 35.786 298.963 35.9363 298.692 36.237C298.428 36.5303 298.27 36.941 298.219 37.469H301.222C301.222 37.1317 301.17 36.8383 301.068 36.589C300.965 36.3397 300.807 36.1453 300.595 36.006C300.389 35.8593 300.122 35.786 299.792 35.786ZM307.574 39.372C307.574 39.7533 307.478 40.0723 307.288 40.329C307.097 40.5857 306.826 40.78 306.474 40.912C306.122 41.044 305.704 41.11 305.22 41.11C304.809 41.11 304.453 41.077 304.153 41.011C303.859 40.945 303.599 40.8533 303.372 40.736V39.856C303.606 39.9733 303.889 40.0833 304.219 40.186C304.556 40.2813 304.897 40.329 305.242 40.329C305.733 40.329 306.089 40.252 306.309 40.098C306.529 39.9367 306.639 39.724 306.639 39.46C306.639 39.3133 306.598 39.1813 306.518 39.064C306.437 38.9467 306.29 38.8293 306.078 38.712C305.872 38.5947 305.575 38.4627 305.187 38.316C304.805 38.1693 304.479 38.0227 304.208 37.876C303.936 37.7293 303.727 37.5533 303.581 37.348C303.434 37.1427 303.361 36.8787 303.361 36.556C303.361 36.0573 303.562 35.6723 303.966 35.401C304.376 35.1297 304.912 34.994 305.572 34.994C305.931 34.994 306.265 35.0307 306.573 35.104C306.888 35.17 307.181 35.2653 307.453 35.39L307.123 36.16C306.961 36.0867 306.789 36.0243 306.606 35.973C306.43 35.9143 306.25 35.8703 306.067 35.841C305.883 35.8043 305.696 35.786 305.506 35.786C305.11 35.786 304.805 35.852 304.593 35.984C304.387 36.1087 304.285 36.281 304.285 36.501C304.285 36.6623 304.332 36.8017 304.428 36.919C304.523 37.029 304.681 37.139 304.901 37.249C305.128 37.3517 305.429 37.4763 305.803 37.623C306.177 37.7623 306.496 37.9053 306.76 38.052C307.024 38.1987 307.225 38.3783 307.365 38.591C307.504 38.7963 307.574 39.0567 307.574 39.372ZM312.837 39.372C312.837 39.7533 312.742 40.0723 312.551 40.329C312.361 40.5857 312.089 40.78 311.737 40.912C311.385 41.044 310.967 41.11 310.483 41.11C310.073 41.11 309.717 41.077 309.416 41.011C309.123 40.945 308.863 40.8533 308.635 40.736V39.856C308.87 39.9733 309.152 40.0833 309.482 40.186C309.82 40.2813 310.161 40.329 310.505 40.329C310.997 40.329 311.352 40.252 311.572 40.098C311.792 39.9367 311.902 39.724 311.902 39.46C311.902 39.3133 311.862 39.1813 311.781 39.064C311.701 38.9467 311.554 38.8293 311.341 38.712C311.136 38.5947 310.839 38.4627 310.45 38.316C310.069 38.1693 309.743 38.0227 309.471 37.876C309.2 37.7293 308.991 37.5533 308.844 37.348C308.698 37.1427 308.624 36.8787 308.624 36.556C308.624 36.0573 308.826 35.6723 309.229 35.401C309.64 35.1297 310.175 34.994 310.835 34.994C311.195 34.994 311.528 35.0307 311.836 35.104C312.152 35.17 312.445 35.2653 312.716 35.39L312.386 36.16C312.225 36.0867 312.053 36.0243 311.869 35.973C311.693 35.9143 311.514 35.8703 311.33 35.841C311.147 35.8043 310.96 35.786 310.769 35.786C310.373 35.786 310.069 35.852 309.856 35.984C309.651 36.1087 309.548 36.281 309.548 36.501C309.548 36.6623 309.596 36.8017 309.691 36.919C309.787 37.029 309.944 37.139 310.164 37.249C310.392 37.3517 310.692 37.4763 311.066 37.623C311.44 37.7623 311.759 37.9053 312.023 38.052C312.287 38.1987 312.489 38.3783 312.628 38.591C312.768 38.7963 312.837 39.0567 312.837 39.372ZM323.544 36.996C323.544 37.876 323.379 38.613 323.049 39.207C322.726 39.801 322.26 40.2483 321.652 40.549C321.043 40.8497 320.306 41 319.441 41H317.252V33.146H319.672C320.464 33.146 321.149 33.2927 321.729 33.586C322.308 33.8793 322.755 34.312 323.071 34.884C323.386 35.4487 323.544 36.1527 323.544 36.996ZM322.499 37.029C322.499 36.3323 322.381 35.7603 322.147 35.313C321.919 34.8657 321.582 34.5357 321.135 34.323C320.695 34.103 320.159 33.993 319.529 33.993H318.242V40.153H319.309C320.372 40.153 321.168 39.8927 321.696 39.372C322.231 38.844 322.499 38.063 322.499 37.029ZM327.432 34.994C327.938 34.994 328.37 35.104 328.73 35.324C329.096 35.544 329.375 35.8557 329.566 36.259C329.764 36.655 329.863 37.1207 329.863 37.656V38.239H325.826C325.84 38.9063 326.009 39.416 326.332 39.768C326.662 40.1127 327.12 40.285 327.707 40.285C328.081 40.285 328.411 40.252 328.697 40.186C328.99 40.1127 329.291 40.01 329.599 39.878V40.725C329.298 40.857 329.001 40.9523 328.708 41.011C328.414 41.077 328.066 41.11 327.663 41.11C327.105 41.11 326.61 40.9963 326.178 40.769C325.752 40.5417 325.419 40.2043 325.177 39.757C324.942 39.3023 324.825 38.7487 324.825 38.096C324.825 37.4507 324.931 36.897 325.144 36.435C325.364 35.973 325.668 35.6173 326.057 35.368C326.453 35.1187 326.911 34.994 327.432 34.994ZM327.421 35.786C326.959 35.786 326.592 35.9363 326.321 36.237C326.057 36.5303 325.899 36.941 325.848 37.469H328.851C328.851 37.1317 328.799 36.8383 328.697 36.589C328.594 36.3397 328.436 36.1453 328.224 36.006C328.018 35.8593 327.751 35.786 327.421 35.786ZM332.447 41L330.214 35.104H331.248L332.502 38.58C332.561 38.7413 332.623 38.921 332.689 39.119C332.755 39.317 332.814 39.5077 332.865 39.691C332.916 39.867 332.953 40.0173 332.975 40.142H333.019C333.048 40.0173 333.089 39.8633 333.14 39.68C333.199 39.4967 333.261 39.306 333.327 39.108C333.4 38.91 333.463 38.734 333.514 38.58L334.768 35.104H335.802L333.558 41H332.447ZM339.012 34.994C339.518 34.994 339.95 35.104 340.31 35.324C340.676 35.544 340.955 35.8557 341.146 36.259C341.344 36.655 341.443 37.1207 341.443 37.656V38.239H337.406C337.42 38.9063 337.589 39.416 337.912 39.768C338.242 40.1127 338.7 40.285 339.287 40.285C339.661 40.285 339.991 40.252 340.277 40.186C340.57 40.1127 340.871 40.01 341.179 39.878V40.725C340.878 40.857 340.581 40.9523 340.288 41.011C339.994 41.077 339.646 41.11 339.243 41.11C338.685 41.11 338.19 40.9963 337.758 40.769C337.332 40.5417 336.999 40.2043 336.757 39.757C336.522 39.3023 336.405 38.7487 336.405 38.096C336.405 37.4507 336.511 36.897 336.724 36.435C336.944 35.973 337.248 35.6173 337.637 35.368C338.033 35.1187 338.491 34.994 339.012 34.994ZM339.001 35.786C338.539 35.786 338.172 35.9363 337.901 36.237C337.637 36.5303 337.479 36.941 337.428 37.469H340.431C340.431 37.1317 340.379 36.8383 340.277 36.589C340.174 36.3397 340.016 36.1453 339.804 36.006C339.598 35.8593 339.331 35.786 339.001 35.786ZM343.912 41H342.944V32.64H343.912V41ZM350.906 38.041C350.906 38.5323 350.84 38.9687 350.708 39.35C350.583 39.724 350.4 40.043 350.158 40.307C349.923 40.571 349.633 40.7727 349.289 40.912C348.951 41.044 348.574 41.11 348.156 41.11C347.767 41.11 347.408 41.044 347.078 40.912C346.748 40.7727 346.462 40.571 346.22 40.307C345.978 40.043 345.787 39.724 345.648 39.35C345.516 38.9687 345.45 38.5323 345.45 38.041C345.45 37.3883 345.56 36.8383 345.78 36.391C346 35.9363 346.315 35.5917 346.726 35.357C347.136 35.115 347.624 34.994 348.189 34.994C348.724 34.994 349.193 35.115 349.597 35.357C350.007 35.5917 350.326 35.9363 350.554 36.391C350.788 36.8383 350.906 37.3883 350.906 38.041ZM346.451 38.041C346.451 38.503 346.509 38.9063 346.627 39.251C346.751 39.5883 346.942 39.8487 347.199 40.032C347.455 40.2153 347.782 40.307 348.178 40.307C348.574 40.307 348.9 40.2153 349.157 40.032C349.413 39.8487 349.6 39.5883 349.718 39.251C349.842 38.9063 349.905 38.503 349.905 38.041C349.905 37.5717 349.842 37.172 349.718 36.842C349.593 36.512 349.402 36.259 349.146 36.083C348.896 35.8997 348.57 35.808 348.167 35.808C347.565 35.808 347.129 36.006 346.858 36.402C346.586 36.798 346.451 37.3443 346.451 38.041ZM355.245 34.994C355.971 34.994 356.554 35.247 356.994 35.753C357.441 36.259 357.665 37.0217 357.665 38.041C357.665 38.7083 357.562 39.273 357.357 39.735C357.159 40.1897 356.877 40.5343 356.51 40.769C356.151 40.9963 355.725 41.11 355.234 41.11C354.933 41.11 354.666 41.0697 354.431 40.989C354.196 40.9083 353.995 40.8057 353.826 40.681C353.665 40.549 353.525 40.406 353.408 40.252H353.342C353.357 40.3767 353.371 40.5343 353.386 40.725C353.401 40.9157 353.408 41.0807 353.408 41.22V43.64H352.44V35.104H353.232L353.364 35.907H353.408C353.525 35.7383 353.665 35.5843 353.826 35.445C353.995 35.3057 354.193 35.1957 354.42 35.115C354.655 35.0343 354.93 34.994 355.245 34.994ZM355.069 35.808C354.673 35.808 354.354 35.885 354.112 36.039C353.87 36.1857 353.694 36.4093 353.584 36.71C353.474 37.0107 353.415 37.392 353.408 37.854V38.041C353.408 38.525 353.459 38.9357 353.562 39.273C353.665 39.6103 353.837 39.867 354.079 40.043C354.328 40.219 354.666 40.307 355.091 40.307C355.45 40.307 355.744 40.208 355.971 40.01C356.206 39.812 356.378 39.5443 356.488 39.207C356.605 38.8623 356.664 38.47 356.664 38.03C356.664 37.3553 356.532 36.8163 356.268 36.413C356.011 36.0097 355.612 35.808 355.069 35.808ZM365.675 34.994C366.343 34.994 366.841 35.1663 367.171 35.511C367.501 35.8483 367.666 36.3983 367.666 37.161V41H366.709V37.205C366.709 36.743 366.61 36.3947 366.412 36.16C366.222 35.9253 365.921 35.808 365.51 35.808C364.938 35.808 364.528 35.973 364.278 36.303C364.036 36.633 363.915 37.1133 363.915 37.744V41H362.958V37.205C362.958 36.897 362.914 36.6403 362.826 36.435C362.738 36.2223 362.606 36.0647 362.43 35.962C362.254 35.8593 362.027 35.808 361.748 35.808C361.352 35.808 361.041 35.8923 360.813 36.061C360.586 36.2223 360.421 36.4607 360.318 36.776C360.223 37.0913 360.175 37.48 360.175 37.942V41H359.207V35.104H359.988L360.131 35.907H360.186C360.311 35.7017 360.461 35.533 360.637 35.401C360.821 35.2617 361.022 35.159 361.242 35.093C361.462 35.027 361.69 34.994 361.924 34.994C362.379 34.994 362.757 35.0747 363.057 35.236C363.365 35.3973 363.589 35.6467 363.728 35.984H363.783C363.981 35.6467 364.249 35.3973 364.586 35.236C364.931 35.0747 365.294 34.994 365.675 34.994ZM371.765 34.994C372.271 34.994 372.703 35.104 373.063 35.324C373.429 35.544 373.708 35.8557 373.899 36.259C374.097 36.655 374.196 37.1207 374.196 37.656V38.239H370.159C370.173 38.9063 370.342 39.416 370.665 39.768C370.995 40.1127 371.453 40.285 372.04 40.285C372.414 40.285 372.744 40.252 373.03 40.186C373.323 40.1127 373.624 40.01 373.932 39.878V40.725C373.631 40.857 373.334 40.9523 373.041 41.011C372.747 41.077 372.399 41.11 371.996 41.11C371.438 41.11 370.943 40.9963 370.511 40.769C370.085 40.5417 369.752 40.2043 369.51 39.757C369.275 39.3023 369.158 38.7487 369.158 38.096C369.158 37.4507 369.264 36.897 369.477 36.435C369.697 35.973 370.001 35.6173 370.39 35.368C370.786 35.1187 371.244 34.994 371.765 34.994ZM371.754 35.786C371.292 35.786 370.925 35.9363 370.654 36.237C370.39 36.5303 370.232 36.941 370.181 37.469H373.184C373.184 37.1317 373.132 36.8383 373.03 36.589C372.927 36.3397 372.769 36.1453 372.557 36.006C372.351 35.8593 372.084 35.786 371.754 35.786ZM378.535 34.994C379.239 34.994 379.77 35.1663 380.13 35.511C380.489 35.8483 380.669 36.3983 380.669 37.161V41H379.712V37.227C379.712 36.7503 379.605 36.3947 379.393 36.16C379.18 35.9253 378.846 35.808 378.392 35.808C377.739 35.808 377.288 35.9913 377.039 36.358C376.789 36.7247 376.665 37.2527 376.665 37.942V41H375.697V35.104H376.478L376.621 35.907H376.676C376.808 35.7017 376.969 35.533 377.16 35.401C377.358 35.2617 377.574 35.159 377.809 35.093C378.043 35.027 378.285 34.994 378.535 34.994ZM384.466 40.318C384.612 40.318 384.763 40.307 384.917 40.285C385.071 40.2557 385.195 40.2263 385.291 40.197V40.934C385.188 40.9853 385.041 41.0257 384.851 41.055C384.66 41.0917 384.477 41.11 384.301 41.11C383.993 41.11 383.707 41.0587 383.443 40.956C383.186 40.846 382.977 40.659 382.816 40.395C382.654 40.131 382.574 39.7607 382.574 39.284V35.852H381.738V35.39L382.585 35.005L382.97 33.751H383.542V35.104H385.247V35.852H383.542V39.262C383.542 39.6213 383.626 39.889 383.795 40.065C383.971 40.2337 384.194 40.318 384.466 40.318ZM391.023 32.64H391.826V43.651H391.023V32.64ZM400.544 33.146C401.196 33.146 401.732 33.2303 402.15 33.399C402.575 33.5603 402.89 33.806 403.096 34.136C403.301 34.466 403.404 34.8803 403.404 35.379C403.404 35.797 403.327 36.1453 403.173 36.424C403.019 36.7027 402.821 36.9263 402.579 37.095C402.344 37.2563 402.095 37.3847 401.831 37.48L403.987 41H402.832L400.929 37.755H399.367V41H398.377V33.146H400.544ZM400.489 34.004H399.367V36.919H400.544C400.969 36.919 401.317 36.864 401.589 36.754C401.86 36.6367 402.058 36.468 402.183 36.248C402.315 36.028 402.381 35.753 402.381 35.423C402.381 35.0783 402.311 34.8033 402.172 34.598C402.04 34.3927 401.834 34.2423 401.556 34.147C401.277 34.0517 400.921 34.004 400.489 34.004ZM407.364 34.994C407.87 34.994 408.303 35.104 408.662 35.324C409.029 35.544 409.308 35.8557 409.498 36.259C409.696 36.655 409.795 37.1207 409.795 37.656V38.239H405.758C405.773 38.9063 405.942 39.416 406.264 39.768C406.594 40.1127 407.053 40.285 407.639 40.285C408.013 40.285 408.343 40.252 408.629 40.186C408.923 40.1127 409.223 40.01 409.531 39.878V40.725C409.231 40.857 408.934 40.9523 408.64 41.011C408.347 41.077 407.999 41.11 407.595 41.11C407.038 41.11 406.543 40.9963 406.11 40.769C405.685 40.5417 405.351 40.2043 405.109 39.757C404.875 39.3023 404.757 38.7487 404.757 38.096C404.757 37.4507 404.864 36.897 405.076 36.435C405.296 35.973 405.601 35.6173 405.989 35.368C406.385 35.1187 406.844 34.994 407.364 34.994ZM407.353 35.786C406.891 35.786 406.525 35.9363 406.253 36.237C405.989 36.5303 405.832 36.941 405.78 37.469H408.783C408.783 37.1317 408.732 36.8383 408.629 36.589C408.527 36.3397 408.369 36.1453 408.156 36.006C407.951 35.8593 407.683 35.786 407.353 35.786ZM413.661 41.11C413.141 41.11 412.675 41.0037 412.264 40.791C411.861 40.5783 411.542 40.2483 411.307 39.801C411.08 39.3537 410.966 38.7817 410.966 38.085C410.966 37.359 411.087 36.7687 411.329 36.314C411.571 35.8593 411.898 35.5257 412.308 35.313C412.726 35.1003 413.199 34.994 413.727 34.994C414.028 34.994 414.318 35.027 414.596 35.093C414.875 35.1517 415.102 35.225 415.278 35.313L414.981 36.116C414.805 36.05 414.6 35.9877 414.365 35.929C414.131 35.8703 413.911 35.841 413.705 35.841C413.309 35.841 412.983 35.9253 412.726 36.094C412.47 36.2627 412.279 36.512 412.154 36.842C412.03 37.172 411.967 37.5827 411.967 38.074C411.967 38.5433 412.03 38.943 412.154 39.273C412.279 39.603 412.466 39.8523 412.715 40.021C412.965 40.1897 413.276 40.274 413.65 40.274C413.973 40.274 414.255 40.241 414.497 40.175C414.747 40.109 414.974 40.0283 415.179 39.933V40.791C414.981 40.8937 414.761 40.9707 414.519 41.022C414.285 41.0807 413.999 41.11 413.661 41.11ZM419.331 34.994C419.441 34.994 419.559 35.0013 419.683 35.016C419.815 35.0233 419.929 35.038 420.024 35.06L419.903 35.951C419.808 35.929 419.702 35.9107 419.584 35.896C419.474 35.8813 419.368 35.874 419.265 35.874C419.038 35.874 418.822 35.9217 418.616 36.017C418.411 36.1123 418.228 36.248 418.066 36.424C417.905 36.5927 417.777 36.798 417.681 37.04C417.593 37.282 417.549 37.5533 417.549 37.854V41H416.581V35.104H417.373L417.483 36.182H417.527C417.652 35.962 417.802 35.764 417.978 35.588C418.154 35.4047 418.356 35.2617 418.583 35.159C418.811 35.049 419.06 34.994 419.331 34.994ZM426.053 35.104V41H425.261L425.118 40.219H425.074C424.95 40.4243 424.788 40.593 424.59 40.725C424.392 40.857 424.176 40.9523 423.941 41.011C423.707 41.077 423.461 41.11 423.204 41.11C422.735 41.11 422.339 41.0367 422.016 40.89C421.701 40.736 421.463 40.5013 421.301 40.186C421.14 39.8707 421.059 39.4637 421.059 38.965V35.104H422.038V38.899C422.038 39.3683 422.145 39.7203 422.357 39.955C422.57 40.1897 422.9 40.307 423.347 40.307C423.787 40.307 424.132 40.2263 424.381 40.065C424.638 39.8963 424.818 39.6543 424.92 39.339C425.03 39.0163 425.085 38.6277 425.085 38.173V35.104H426.053ZM428.893 35.104V41H427.925V35.104H428.893ZM428.42 32.893C428.567 32.893 428.695 32.9443 428.805 33.047C428.923 33.1423 428.981 33.2963 428.981 33.509C428.981 33.7143 428.923 33.8683 428.805 33.971C428.695 34.0737 428.567 34.125 428.42 34.125C428.259 34.125 428.123 34.0737 428.013 33.971C427.903 33.8683 427.848 33.7143 427.848 33.509C427.848 33.2963 427.903 33.1423 428.013 33.047C428.123 32.9443 428.259 32.893 428.42 32.893ZM432.73 40.318C432.877 40.318 433.027 40.307 433.181 40.285C433.335 40.2557 433.46 40.2263 433.555 40.197V40.934C433.453 40.9853 433.306 41.0257 433.115 41.055C432.925 41.0917 432.741 41.11 432.565 41.11C432.257 41.11 431.971 41.0587 431.707 40.956C431.451 40.846 431.242 40.659 431.08 40.395C430.919 40.131 430.838 39.7607 430.838 39.284V35.852H430.002V35.39L430.849 35.005L431.234 33.751H431.806V35.104H433.511V35.852H431.806V39.262C431.806 39.6213 431.891 39.889 432.059 40.065C432.235 40.2337 432.459 40.318 432.73 40.318ZM441.204 34.994C441.871 34.994 442.37 35.1663 442.7 35.511C443.03 35.8483 443.195 36.3983 443.195 37.161V41H442.238V37.205C442.238 36.743 442.139 36.3947 441.941 36.16C441.75 35.9253 441.449 35.808 441.039 35.808C440.467 35.808 440.056 35.973 439.807 36.303C439.565 36.633 439.444 37.1133 439.444 37.744V41H438.487V37.205C438.487 36.897 438.443 36.6403 438.355 36.435C438.267 36.2223 438.135 36.0647 437.959 35.962C437.783 35.8593 437.555 35.808 437.277 35.808C436.881 35.808 436.569 35.8923 436.342 36.061C436.114 36.2223 435.949 36.4607 435.847 36.776C435.751 37.0913 435.704 37.48 435.704 37.942V41H434.736V35.104H435.517L435.66 35.907H435.715C435.839 35.7017 435.99 35.533 436.166 35.401C436.349 35.2617 436.551 35.159 436.771 35.093C436.991 35.027 437.218 34.994 437.453 34.994C437.907 34.994 438.285 35.0747 438.586 35.236C438.894 35.3973 439.117 35.6467 439.257 35.984H439.312C439.51 35.6467 439.777 35.3973 440.115 35.236C440.459 35.0747 440.822 34.994 441.204 34.994ZM447.293 34.994C447.799 34.994 448.232 35.104 448.591 35.324C448.958 35.544 449.236 35.8557 449.427 36.259C449.625 36.655 449.724 37.1207 449.724 37.656V38.239H445.687C445.702 38.9063 445.87 39.416 446.193 39.768C446.523 40.1127 446.981 40.285 447.568 40.285C447.942 40.285 448.272 40.252 448.558 40.186C448.851 40.1127 449.152 40.01 449.46 39.878V40.725C449.159 40.857 448.862 40.9523 448.569 41.011C448.276 41.077 447.927 41.11 447.524 41.11C446.967 41.11 446.472 40.9963 446.039 40.769C445.614 40.5417 445.28 40.2043 445.038 39.757C444.803 39.3023 444.686 38.7487 444.686 38.096C444.686 37.4507 444.792 36.897 445.005 36.435C445.225 35.973 445.529 35.6173 445.918 35.368C446.314 35.1187 446.772 34.994 447.293 34.994ZM447.282 35.786C446.82 35.786 446.453 35.9363 446.182 36.237C445.918 36.5303 445.76 36.941 445.709 37.469H448.712C448.712 37.1317 448.661 36.8383 448.558 36.589C448.455 36.3397 448.298 36.1453 448.085 36.006C447.88 35.8593 447.612 35.786 447.282 35.786ZM454.063 34.994C454.767 34.994 455.299 35.1663 455.658 35.511C456.017 35.8483 456.197 36.3983 456.197 37.161V41H455.24V37.227C455.24 36.7503 455.134 36.3947 454.921 36.16C454.708 35.9253 454.375 35.808 453.92 35.808C453.267 35.808 452.816 35.9913 452.567 36.358C452.318 36.7247 452.193 37.2527 452.193 37.942V41H451.225V35.104H452.006L452.149 35.907H452.204C452.336 35.7017 452.497 35.533 452.688 35.401C452.886 35.2617 453.102 35.159 453.337 35.093C453.572 35.027 453.814 34.994 454.063 34.994ZM459.994 40.318C460.141 40.318 460.291 40.307 460.445 40.285C460.599 40.2557 460.724 40.2263 460.819 40.197V40.934C460.716 40.9853 460.57 41.0257 460.379 41.055C460.188 41.0917 460.005 41.11 459.829 41.11C459.521 41.11 459.235 41.0587 458.971 40.956C458.714 40.846 458.505 40.659 458.344 40.395C458.183 40.131 458.102 39.7607 458.102 39.284V35.852H457.266V35.39L458.113 35.005L458.498 33.751H459.07V35.104H460.775V35.852H459.07V39.262C459.07 39.6213 459.154 39.889 459.323 40.065C459.499 40.2337 459.723 40.318 459.994 40.318Z" fill="black"/>
<defs>
<linearGradient id="paint0_linear_773_1498" x1="-2.07382" y1="-8.19744" x2="42.1703" y2="64.3018" gradientUnits="userSpaceOnUse">
<stop stop-color="#1B6CED"/>
<stop offset="1" stop-color="#14D1E0"/>
</linearGradient>
<clipPath id="clip0_773_1498">
<rect width="162" height="45" fill="white"/>
</clipPath>
</defs>
</svg>
